# xmcd
#
# Track frame offsets: 
#        182
#        19510
#        30780
#        47777
#        70720
#        83645
#        96492
#        111627
#        129250
#        145242
#        161410
#        181387
#        191582
#        212122
#
# Disc length: 3181 seconds
#
# Revision: 3
# Processed by: cddbd v1.5.2PL0 Copyright (c) Steve Scherf et al.
# Submitted via: ExactAudioCopy v0.99pb3
#
DISCID=b90c6b0e
DTITLE=Screaming Jay Hawkins - I Put a Spell on You
DYEAR=1993
DGENRE=Blues
TTITLE0=Portrait of a Man
TTITLE1=Itty Bitty Pretty One
TTITLE2=Don't Deceive Me
TTITLE3=What's Gonna Happen on the 8th Day?
TTITLE4=Ashes
TTITLE5=We Love
TTITLE6=It's Only Make Believe
TTITLE7=Please Don't Leave Me
TTITLE8=I Put a Spell on You
TTITLE9=I Don't Know
TTITLE10=Guess Who
TTITLE11=What Good Is It Pt. 1
TTITLE12=What Good Is It Pt. 2
TTITLE13=Same Damn Thing
EXTD=Original Hot Line Recordings\nReissue, Charly Records Ltd., 1993
EXTT0=
EXTT1=
EXTT2=
EXTT3=
EXTT4=
EXTT5=
EXTT6=
EXTT7=
EXTT8=
EXTT9=
EXTT10=
EXTT11=
EXTT12=
EXTT13=
PLAYORDER=
